<svg xmlns="http://www.w3.org/2000/svg" viewBox="0 0 220 34">
  <symbol id="logo" viewBox="0 0 220 34"><path d="M45.8 10v3.7s0 1.5 1.5 1.5h6V10c0-.7.2-1.3.5-1.7.3-.3.7-.5 1.2-.5s.9.2 1.3.5c.3.4.5.9.5 1.7v14.2c0 .7-.2 1.3-.5 1.7-.3.4-.7.6-1.3.6-.5 0-.9-.2-1.2-.6-.3-.4-.5-.9-.5-1.7v-6.1h-6s-1.5 0-1.5 1.5v4.6c0 .7-.2 1.3-.5 1.7-.3.4-.7.6-1.3.6-.5 0-.9-.2-1.2-.6-.3-.4-.5-.9-.5-1.7V10c0-.7.2-1.3.5-1.7.3-.4.7-.6 1.3-.6.5 0 .9.2 1.3.5.3.5.4 1.1.4 1.8m27.6.9h-7.8v2.9s0 1.5 1.5 1.5h5.7c.5 0 .9.1 1.2.4.3.2.4.6.4 1s-.1.7-.4 1c-.3.3-.7.4-1.2.4h-7.2v3.6s0 1.5 1.5 1.5h6.6c.5 0 1 .1 1.2.4.3.3.4.6.4 1.1 0 .4-.1.8-.4 1-.3.3-.7.4-1.2.4h-9.4c-.8 0-1.3-.2-1.6-.5-.3-.4-.5-.9-.5-1.7V10.3l.2-1.3c.1-.3.4-.6.7-.7.3-.2.7-.2 1.2-.2h9.1c.6 0 1 .1 1.2.4.3.3.4.6.4 1s-.1.8-.4 1c-.2.3-.6.4-1.2.4m17.4 13.2l-.4-1.1s-.4-1.1-1.9-1.1H83l-.8 2.3-.8 1.8c-.2.3-.6.5-1.1.5a2 2 0 01-1.2-.5c-.3-.3-.5-.7-.5-1.1l.1-.8.4-1.1 4.4-11.7.4-1.2.6-1.2.8-.8c.3-.2.7-.3 1.2-.3s.9.1 1.2.3l.8.7.5 1 .5 1.4L94 22.8c.4.9.5 1.5.5 1.9 0 .4-.2.8-.5 1.2-.3.3-.7.5-1.2.5l-.7-.2-.5-.4-.4-.8-.4-.9m-6.9-5h3.6s1.5 0 1-1.4L86.9 13s-.5-1.4-1 0l-2 6.1zm18.2-9.1v11.6s0 1.5 1.5 1.5h5.5c.6 0 1 .1 1.3.4.3.3.4.6.4 1.1 0 .4-.1.8-.4 1.1-.3.3-.7.4-1.3.4h-8.3c-.8 0-1.3-.2-1.6-.5-.3-.4-.5-.9-.5-1.7V10c0-.7.2-1.3.5-1.7.3-.4.7-.6 1.2-.6s.9.2 1.3.5c.3.5.4 1.1.4 1.8m20.9 1.1h-1.9s-1.9 0-1.9 4.5v8.6c0 .8-.2 1.3-.5 1.7-.3.4-.7.5-1.2.5s-.9-.2-1.3-.6c-.3-.4-.5-.9-.5-1.7v-13H112c-.6 0-1-.1-1.3-.4-.3-.3-.4-.6-.4-1.1 0-.5.2-.8.4-1.1.3-.3.7-.4 1.3-.4h11c.6 0 1 .1 1.3.4.3.3.4.6.4 1.1 0 .5-.2.8-.4 1.1-.3.3-.7.4-1.3.4m9.1-1.1v3.7s0 1.5 1.5 1.5h6V10c0-.7.2-1.3.5-1.7.3-.4.7-.6 1.2-.6s.9.2 1.3.5c.3.4.5.9.5 1.7v14.2c0 .7-.2 1.3-.5 1.7-.3.4-.7.6-1.3.6-.5 0-.9-.2-1.2-.6-.3-.4-.5-.9-.5-1.7V18h-6s-1.5 0-1.5 1.5v4.6c0 .7-.2 1.3-.5 1.7-.3.4-.7.6-1.3.6-.5 0-.9-.2-1.2-.6s-.5-.9-.5-1.7V10c0-.7.2-1.3.5-1.7.3-.4.7-.6 1.3-.6.5 0 .9.2 1.3.5.2.5.4 1.1.4 1.8m27.6.9h-7.8v2.9s0 1.5 1.5 1.5h5.7c.5 0 .9.1 1.2.4.3.2.4.6.4 1s-.1.7-.4 1c-.3.3-.7.4-1.2.4h-7.2v3.6s0 1.5 1.5 1.5h6.6c.5 0 1 .1 1.2.4.3.3.4.6.4 1.1 0 .4-.1.8-.4 1-.3.3-.7.4-1.2.4h-9.4c-.8 0-1.3-.2-1.6-.5-.3-.4-.5-.9-.5-1.7V10.3l.2-1.3c.1-.3.4-.6.7-.7.3-.2.7-.2 1.2-.2h9.1c.6 0 1 .1 1.2.4.3.3.4.6.4 1s-.1.8-.4 1c-.3.3-.7.4-1.2.4m11 7.5h-1.2v5.8c0 .8-.2 1.3-.5 1.7-.3.4-.7.5-1.2.5-.6 0-1-.2-1.3-.6-.3-.4-.5-.9-.5-1.7V10.3c0-.8.2-1.4.5-1.7.3-.4.9-.5 1.6-.5h5.6l2 .1 1.5.4c.5.2 1 .6 1.4 1 .4.4.7 1 .9 1.5.2.6.3 1.2.3 1.9 0 1.3-.4 2.4-1.1 3.2-.7.8-1.8 1.4-3.3 1.7.6.3 1.2.9 1.8 1.5l1.5 2.1c.4.8.8 1.4 1 2.1l.4 1.3-.2.7-.6.6a2 2 0 01-.9.2c-.4 0-.7-.1-1-.3l-.7-.7-.8-1.3-1.4-2.4c-.5-.9-.9-1.6-1.3-2-.4-.5-.8-.8-1.2-1-.1-.2-.6-.3-1.3-.3m2-7.6h-3.2v5h3.1l2.1-.2c.6-.2 1-.4 1.3-.8.3-.4.4-.9.4-1.5a2 2 0 00-.4-1.3c-.2-.4-.6-.7-1-.9-.3-.2-1.1-.3-2.3-.3m26.5 9.6c0 .6-.1 1.2-.4 1.9-.3.7-.7 1.3-1.3 2-.6.6-1.3 1.2-2.2 1.6-.9.4-1.9.6-3.1.6a10 10 0 01-2.5-.3 12 12 0 01-2-.8 8 8 0 01-1.7-1.5l-1.2-1.9c-.3-.7-.6-1.5-.7-2.2-.2-.8-.2-1.6-.2-2.5 0-1.4.2-2.7.6-3.9.4-1.1 1-2.1 1.7-2.9.7-.8 1.6-1.4 2.6-1.9 1-.4 2.1-.6 3.2-.6a7.5 7.5 0 016.2 3.1c.6.9.9 1.7.9 2.4 0 .4-.1.8-.4 1.1-.3.3-.6.5-1 .5s-.8-.1-1-.3l-.7-1.1c-.5-.9-1-1.6-1.6-2-.6-.4-1.4-.7-2.3-.7a4 4 0 00-3.4 1.7 8.4 8.4 0 00-1.3 4.9c0 1.4.2 2.6.6 3.5a5 5 0 001.6 2.1 4 4 0 002.4.7c1 0 1.8-.3 2.5-.8a5 5 0 001.6-2.3l.5-1.2c.2-.3.6-.4 1-.4s.8.2 1.1.5c.4-.1.5.3.5.7m12.4-12.6c1.8 0 3.3.4 4.6 1.1 1.3.8 2.2 1.8 2.9 3.2.7 1.4 1 3 1 4.9 0 1.4-.2 2.7-.5 3.8-.4 1.1-.9 2.1-1.6 3a7 7 0 01-2.6 1.9 9.6 9.6 0 01-7.2 0 7.3 7.3 0 01-4.2-4.9c-.4-1.2-.5-2.4-.5-3.8s.2-2.7.6-3.8a8 8 0 011.6-2.9c.7-.8 1.6-1.4 2.6-1.9.8-.4 2-.6 3.3-.6m4.9 9.2c0-1.3-.2-2.5-.6-3.4-.4-1-1-1.7-1.7-2.2-.7-.5-1.6-.7-2.6-.7a4 4 0 00-1.9.4c-.6.3-1.1.7-1.5 1.2-.4.5-.8 1.2-1 2a11 11 0 00-.4 2.7 8.2 8.2 0 001.4 4.9 4.2 4.2 0 003.4 1.6 4 4 0 002.4-.7c.7-.5 1.3-1.2 1.8-2.2.5-.9.7-2.1.7-3.6M26.1 17.7h-3.2v-1.1h3.2v1.1zm-3.8-1.1h-3.2v1.1h3.2v-1.1zm-8.3 0h-3.2v1.1H14v-1.1zm-3.8 0H7v1.1h3.2v-1.1zM33 1.2v31.5c0 .7-.5 1.2-1.2 1.2H1.3c-.5 0-.9-.3-1.1-.7-.2-.1-.2-.3-.2-.5V1.3C0 .8.2.5.6.2l.7-.2h30.4L33 1.2zm-3.2 22.2v-2.3h-2.2s-1.5 0-1.5 1.5v4.6c0 .7-.6 1.3-1.3 1.3h-.5c-.7 0-1.3-.6-1.3-1.3v-6.1h-.3s-.3 0-.3 1.5v4.6c0 .7-.6 1.3-1.3 1.3h-.4c-.7 0-1.3-.6-1.3-1.3v-6.1h-5.2V27c0 .7-.6 1.3-1.3 1.3h-.4c-.7 0-1.3-.6-1.3-1.3v-5.9h-.6V27c0 .7-.6 1.3-1.3 1.3h-1c-.7 0-1.4-.6-1.3-1.3v-9H29.7v-7.5c0-7.4-7.5-7.4-7.5-7.4h-8.8c-9.3 0-10.3 8.1-10.5 10h2.3s1.5 0 1.5-1.5V7c0-.7.6-1.3 1.3-1.3h.5c.7 0 1.3.6 1.3 1.3v6.1h.3s.3 0 .3-1.5V7c0-.7.6-1.3 1.3-1.3h.4c.7 0 1.3.6 1.3 1.3v6.1h5.2V7.3c0-.7.6-1.3 1.3-1.3h.4c.7 0 1.3.6 1.3 1.3v5.9h.6V7.3c0-.7.6-1.3 1.3-1.3h.5c.7 0 1.4.6 1.3 1.3v9H3.1v8.6c0 5.9 6 5.9 6 5.9h13.2c7.5.1 7.5-7.4 7.5-7.4z"/></symbol>
  <symbol id="about" viewBox="0 0 512 512"><path d="M192 40a24 24 0 100 48 24 24 0 100-48zm0 32c-4.4 0-8-3.6-8-8s3.6-8 8-8 8 3.6 8 8-3.6 8-8 8zM88 264h32v16H88v-16zM136 264h120v16H136v-16zM88 312h32v16H88v-16zM88 360h32v16H88v-16zM88 408h32v16H88v-16z"/><path d="M488 280h-8c-26-.1-51.2-8.5-72-24l-19.2-14.4a7.8 7.8 0 00-9.6 0L368 250V88a24 24 0 00-24-24h-65.4A24 24 0 00256 48h-18.7a48.1 48.1 0 00-90.6 0H128a24.2 24.2 0 00-22.6 16H40a24 24 0 00-24 24v384a24 24 0 0024 24h304c7.3 0 14.3-3.4 18.8-9.2l17.8 8.4a7.6 7.6 0 006.9 0l70.2-33.4a71.6 71.6 0 0038.3-63.6V288a8 8 0 00-8-8zM280 80h64a8 8 0 018 8v173.5c-5.1 3.2-10.5 6-16 8.4V104a8 8 0 00-8-8h-48V80zm-160-8a8 8 0 018-8h24.8a8 8 0 007.8-6.4 32 32 0 0162.7 0 8 8 0 007.8 6.4H256a8 8 0 018 8v32H120V72zm-8 48h160a8 8 0 008-8h40v163.5a123.6 123.6 0 01-32 4.5h-8a8 8 0 00-8 8v24H136v16h136v32H136v16h136v22.2c0 3.3.2 6.5.6 9.8H136v16h140.9a72.3 72.3 0 0015.3 24H64V112h40a8 8 0 008 8zm232 360H40a8 8 0 01-8-8V88a8 8 0 018-8h64v16H56a8 8 0 00-8 8v352a8 8 0 008 8h258.9l32.2 15.3c-1 .4-2 .7-3.1.7zm136-81.8a55.6 55.6 0 01-29.5 49.3L384 479.1l-66.3-31.5a55.9 55.9 0 01-29.7-49.4V296c29.4-.1 58-9.6 81.6-27.2L384 258l14.4 10.8A137.2 137.2 0 00480 296v102.2z"/><path d="M240 168h-24v-24a8 8 0 00-8-8h-32a8 8 0 00-8 8v24h-24a8 8 0 00-8 8v32a8 8 0 008 8h24v24a8 8 0 008 8h32a8 8 0 008-8v-24h24a8 8 0 008-8v-32a8 8 0 00-8-8zm-8 32h-24a8 8 0 00-8 8v24h-16v-24a8 8 0 00-8-8h-24v-16h24a8 8 0 008-8v-24h16v24a8 8 0 008 8h24v16zM457.2 310.2a153.1 153.1 0 01-68.4-28.6 7.8 7.8 0 00-9.6 0 152 152 0 01-68.4 28.6 8 8 0 00-6.8 7.9v80.1c0 14.5 7.9 27.9 20.6 35l.5.2 55.4 26.3a7.6 7.6 0 006.9 0l55.9-26.6a40 40 0 0020.6-35V318a8 8 0 00-6.7-7.8zm-9.2 88c0 8.6-4.5 16.5-12 20.7l-52 24.7-51.8-24.6a24 24 0 01-12.2-20.9v-73.4c23-4.5 44.8-13.7 64-27 19.2 13.4 41 22.6 64 27v73.5z"/><path d="M349.7 378.3l-11.3 11.3 24 24a8 8 0 0011.3 0l64-64-11.3-11.3-58.4 58.4-18.3-18.4z"/></symbol>
  <symbol id="prev" viewBox="0 0 512 512"><path d="M362.8 22.9a66.8 66.8 0 00-71.1 7.6l-219 172.4A67 67 0 0046.9 256a67 67 0 0025.8 53.1l219.1 172.4a68.3 68.3 0 0041.7 14.6 67 67 0 0067.7-67.5V233.3c0-8.7-7.2-15.9-15.9-15.9s-15.9 7.2-15.9 15.9v195.2c0 14-7.6 26-20.1 32.1a34.8 34.8 0 01-37.6-4L92.6 284.3a36.1 36.1 0 010-56.2L311.7 55.7a34.7 34.7 0 0137.6-4 34.9 34.9 0 0120.1 32.1v75.7c0 8.7 7.2 15.9 15.9 15.9s15.9-7.2 15.9-15.9V83.8a68 68 0 00-38.4-60.9z"/></symbol>
  <symbol id="next" viewBox="0 0 512 512"><path d="M145.2 489.1a66.8 66.8 0 0071.1-7.6l219.1-172.4a67 67 0 0025.8-53.1 67 67 0 00-25.8-53.1L216.2 30.6a68 68 0 00-71.2-7.8 67 67 0 00-38.1 60.7v195.2c0 8.7 7.2 15.9 15.9 15.9s15.9-7.2 15.9-15.9V83.5c0-14 7.6-26 20.1-32.1a34.8 34.8 0 0137.6 4l219.1 172.4a36.1 36.1 0 010 56.2L196.3 456.3a34.7 34.7 0 01-37.6 4 34.9 34.9 0 01-20.1-32.1v-75.7c0-8.7-7.2-15.9-15.9-15.9s-15.9 7.2-15.9 15.9v75.7a68 68 0 0038.4 60.9z"/></symbol>
  <symbol id="question" viewBox="0 0 512 512"><path d="M293.2 413.2a10.5 10.5 0 01-7.2 2.8h-60c-2.7 0-5.3-1-7.2-2.8a9.6 9.6 0 01-2.8-7.2v-60a9.6 9.6 0 0110-10h60a9.6 9.6 0 0110 10v60c.1 2.7-.9 5.3-2.8 7.2zm78.9-191.9c-2.1 6.6-5.1 13-8.8 18.9a73.3 73.3 0 01-13.9 15c-4.5 4-9.3 7.6-14.4 10.9-3.5 2.3-8.6 5.3-15.3 8.9a51.9 51.9 0 00-17 15.6c-3.7 4.4-6 9.7-6.7 15.4a9.6 9.6 0 01-10 10h-60a9.6 9.6 0 01-10-10v-11.2a57.5 57.5 0 0116.4-39.2 108 108 0 0136.1-27.1c8-3.2 15.2-7.9 21.2-14a28.3 28.3 0 006.3-19.1 22.8 22.8 0 00-11.7-18.4 45.5 45.5 0 00-26.7-8.2 45.2 45.2 0 00-26.9 7.5 162.7 162.7 0 00-26.9 28.7 10 10 0 01-13.8 1.9l-41.2-31.3a9 9 0 01-3.1-12.2l.6-.9c23-42.2 67.9-67.9 115.9-66.5 18.5.1 36.6 4.5 53.1 12.8 17.1 8.4 32 20.9 43.3 36.2a84.2 84.2 0 0113.5 76.3zm4.4-173.1a241.5 241.5 0 00-240.9 0 239.6 239.6 0 00-87.3 87.3 241.7 241.7 0 000 241c21 36.2 51.1 66.4 87.3 87.3a241.5 241.5 0 00240.9 0c36.2-21 66.4-51.1 87.3-87.3a241.7 241.7 0 000-241 240.4 240.4 0 00-87.3-87.3z"/></symbol>
  <symbol id="caret" viewBox="0 0 512 512"><path d="M416 198.8c.1-3.4-1.3-6.7-3.8-9.1l-33-32.5c-4.8-4.9-12.6-5-17.5-.3l-.3.3L256 262.4 150.6 157.2c-4.8-4.9-12.6-5-17.5-.3l-.3.3-33 32.5a13 13 0 000 18.3l147.4 146.9c4.8 4.9 12.6 5 17.5.3l.3-.3L412.3 208c2.4-2.4 3.8-5.8 3.7-9.2z"/></symbol>
  <symbol id="close" viewBox="0 0 512 512"><path d="M284.3 256L506 34.1A20 20 0 10478 6L256 227.7 34.1 6A20 20 0 106 34L227.7 256 6 477.9A20 20 0 1034 506L256 284.3 477.9 506a20 20 0 0028.2 0 20 20 0 000-28.2L284.3 256z"/></symbol>
  <symbol id="menu" viewBox="0 0 512 512"><path d="M438 0H74a74 74 0 000 148h364a74 74 0 000-148zm0 108H74a34 34 0 010-68h364a34 34 0 010 68zM438 182H74a74 74 0 000 148h364a74 74 0 000-148zm0 108H74a34 34 0 010-68h364a34 34 0 010 68zM438 364H74a74 74 0 000 148h264a20 20 0 100-40H74a34 34 0 010-68h364a34 34 0 010 68 20 20 0 100 40 74 74 0 000-148z"/></symbol>
</svg>
